<?xml version="1.0" encoding="UTF-8" standalone="no"?>
<!DOCTYPE svg PUBLIC "-//W3C//DTD SVG 1.1//EN" "http://www.w3.org/Graphics/SVG/1.1/DTD/svg11.dtd">
<svg width="100%" height="100%" viewBox="0 0 1200 240" version="1.1" xmlns="http://www.w3.org/2000/svg" xmlns:xlink="http://www.w3.org/1999/xlink" xml:space="preserve" xmlns:serif="http://www.serif.com/" style="fill-rule:evenodd;clip-rule:evenodd;stroke-linejoin:round;stroke-miterlimit:2;">
    <g transform="matrix(0.482316,0,0,0.746623,19.9933,13.8611)">
        <g id="Layer1">
            <rect x="-41.453" y="-18.565" width="534.21" height="321.447" style="fill:rgb(116,190,211);"/>
        </g>
    </g>
    <g transform="matrix(1.47041,0,0,1.8881,40.7341,11.9216)">
        <g transform="matrix(173.998,0,0,135.505,152.154,98.6278)">
            <path d="M0.143,-0.622L0.228,-0.622L0.193,-0.381L0.464,-0.381L0.5,-0.622L0.583,-0.622L0.49,-0L0.408,-0L0.452,-0.299L0.181,-0.299L0.137,-0L0.051,-0L0.143,-0.622Z" style="fill:rgb(66,62,59);fill-rule:nonzero;"/>
        </g>
        <g transform="matrix(173.998,0,0,135.505,257.239,98.6278)">
            <path d="M0.392,-0.391L0.475,-0.391L0.418,-0L0.334,-0L0.34,-0.042C0.302,-0.006 0.261,0.011 0.217,0.011C0.165,0.011 0.12,-0.009 0.081,-0.049C0.043,-0.089 0.024,-0.137 0.024,-0.192C0.024,-0.249 0.044,-0.298 0.084,-0.339C0.124,-0.38 0.172,-0.401 0.228,-0.401C0.293,-0.401 0.344,-0.369 0.379,-0.306L0.392,-0.391ZM0.347,-0.204C0.347,-0.239 0.334,-0.269 0.309,-0.294C0.284,-0.319 0.254,-0.332 0.22,-0.332C0.184,-0.332 0.154,-0.318 0.128,-0.291C0.103,-0.263 0.09,-0.23 0.09,-0.191C0.09,-0.152 0.102,-0.12 0.126,-0.095C0.15,-0.07 0.18,-0.058 0.217,-0.058C0.255,-0.058 0.286,-0.071 0.31,-0.099C0.335,-0.126 0.347,-0.161 0.347,-0.204Z" style="fill:rgb(66,62,59);fill-rule:nonzero;"/>
        </g>
        <g transform="matrix(173.998,0,0,135.505,344.227,98.6278)">
            <path d="M0.021,-0L0.078,-0.391L0.161,-0.391L0.152,-0.322C0.178,-0.348 0.202,-0.368 0.223,-0.381C0.245,-0.394 0.269,-0.401 0.295,-0.401C0.323,-0.401 0.349,-0.389 0.371,-0.366C0.394,-0.342 0.405,-0.316 0.405,-0.286C0.405,-0.279 0.404,-0.273 0.404,-0.269L0.363,-0L0.281,-0L0.318,-0.249C0.319,-0.252 0.319,-0.258 0.319,-0.265C0.319,-0.285 0.313,-0.301 0.301,-0.313C0.29,-0.326 0.275,-0.332 0.256,-0.332C0.226,-0.332 0.199,-0.316 0.175,-0.285C0.151,-0.254 0.135,-0.213 0.127,-0.161L0.104,-0L0.021,-0Z" style="fill:rgb(66,62,59);fill-rule:nonzero;"/>
        </g>
        <g transform="matrix(173.998,0,0,135.505,420.085,98.6278)">
            <path d="M0.083,-0.391L0.427,-0.391L0.149,-0.074L0.36,-0.074L0.349,-0L-0.011,-0L0.271,-0.32L0.073,-0.32L0.083,-0.391Z" style="fill:rgb(66,62,59);fill-rule:nonzero;"/>
        </g>
        <g transform="matrix(173.998,0,0,135.505,496.284,98.6278)">
            <path d="M0.107,-0.567C0.107,-0.582 0.112,-0.594 0.123,-0.604C0.133,-0.615 0.146,-0.62 0.16,-0.62C0.175,-0.62 0.187,-0.615 0.198,-0.604C0.209,-0.594 0.214,-0.582 0.214,-0.567C0.214,-0.552 0.209,-0.539 0.198,-0.529C0.188,-0.518 0.175,-0.513 0.16,-0.513C0.146,-0.513 0.133,-0.518 0.123,-0.529C0.112,-0.54 0.107,-0.552 0.107,-0.567ZM0.091,-0.391L0.174,-0.391L0.118,-0L0.035,-0L0.091,-0.391Z" style="fill:rgb(66,62,59);fill-rule:nonzero;"/>
        </g>
        <g transform="matrix(173.998,0,0,135.505,534.42,98.6278)">
            <path d="M0.013,-0.064L0.059,-0.122C0.078,-0.102 0.094,-0.088 0.11,-0.078C0.125,-0.069 0.142,-0.064 0.161,-0.064C0.177,-0.064 0.19,-0.068 0.201,-0.075C0.211,-0.083 0.217,-0.092 0.217,-0.103C0.217,-0.12 0.199,-0.138 0.165,-0.157C0.13,-0.176 0.106,-0.195 0.093,-0.214C0.079,-0.232 0.072,-0.255 0.072,-0.281C0.072,-0.314 0.084,-0.342 0.11,-0.365C0.135,-0.389 0.166,-0.401 0.201,-0.401C0.235,-0.401 0.274,-0.384 0.32,-0.35L0.274,-0.292C0.241,-0.315 0.215,-0.326 0.196,-0.326C0.181,-0.326 0.17,-0.322 0.16,-0.313C0.151,-0.305 0.146,-0.294 0.146,-0.281C0.146,-0.27 0.15,-0.261 0.159,-0.252C0.167,-0.243 0.184,-0.232 0.21,-0.217C0.236,-0.203 0.256,-0.187 0.27,-0.169C0.283,-0.152 0.29,-0.13 0.29,-0.105C0.29,-0.072 0.278,-0.044 0.252,-0.022C0.227,0 0.196,0.011 0.157,0.011C0.13,0.011 0.105,0.005 0.083,-0.007C0.061,-0.019 0.038,-0.038 0.013,-0.064Z" style="fill:rgb(66,62,59);fill-rule:nonzero;"/>
        </g>
        <g transform="matrix(173.998,0,0,135.505,592.352,98.6278)">
            <path d="M0.107,-0.567C0.107,-0.582 0.112,-0.594 0.123,-0.604C0.133,-0.615 0.146,-0.62 0.16,-0.62C0.175,-0.62 0.187,-0.615 0.198,-0.604C0.209,-0.594 0.214,-0.582 0.214,-0.567C0.214,-0.552 0.209,-0.539 0.198,-0.529C0.188,-0.518 0.175,-0.513 0.16,-0.513C0.146,-0.513 0.133,-0.518 0.123,-0.529C0.112,-0.54 0.107,-0.552 0.107,-0.567ZM0.091,-0.391L0.174,-0.391L0.118,-0L0.035,-0L0.091,-0.391Z" style="fill:rgb(66,62,59);fill-rule:nonzero;"/>
        </g>
        <g transform="matrix(173.998,0,0,135.505,630.488,98.6278)">
            <path d="M0.083,-0.391L0.427,-0.391L0.149,-0.074L0.36,-0.074L0.349,-0L-0.011,-0L0.271,-0.32L0.073,-0.32L0.083,-0.391Z" style="fill:rgb(66,62,59);fill-rule:nonzero;"/>
        </g>
        <g transform="matrix(173.998,0,0,135.505,706.686,98.6278)">
            <path d="M0.41,-0.175L0.1,-0.175C0.104,-0.135 0.117,-0.105 0.138,-0.084C0.159,-0.064 0.186,-0.053 0.22,-0.053C0.256,-0.053 0.293,-0.074 0.333,-0.115L0.381,-0.067C0.339,-0.015 0.286,0.011 0.22,0.011C0.162,0.011 0.114,-0.007 0.077,-0.044C0.04,-0.082 0.021,-0.129 0.021,-0.187C0.021,-0.246 0.042,-0.297 0.083,-0.338C0.124,-0.38 0.173,-0.401 0.232,-0.401C0.282,-0.401 0.324,-0.382 0.359,-0.346C0.395,-0.309 0.412,-0.264 0.412,-0.212C0.412,-0.199 0.411,-0.187 0.41,-0.175ZM0.106,-0.237L0.335,-0.237C0.322,-0.301 0.286,-0.333 0.226,-0.333C0.196,-0.333 0.17,-0.325 0.149,-0.308C0.127,-0.291 0.113,-0.267 0.106,-0.237Z" style="fill:rgb(66,62,59);fill-rule:nonzero;"/>
        </g>
    </g>
    <g transform="matrix(1.4569,0,0,1.47409,-191.526,-20.8565)">
        <g transform="matrix(1.48314,0,0,1.48314,275.401,162.842)">
            <path d="M0,-90.736L-74.857,-90.736C-79.224,-90.736 -82.797,-87.163 -82.797,-82.797L-82.797,-54.135C-82.797,-51.783 -80.891,-49.877 -78.54,-49.877C-69.886,-49.877 -51.056,-49.877 -51.056,-49.877C-51.056,-49.877 -43.551,-49.865 -38.241,-49.856C-35.386,-49.852 -33.066,-47.55 -33.04,-44.694C-32.99,-39.342 -32.92,-31.741 -32.92,-31.741L-32.92,-4.257C-32.92,-1.906 -31.014,-0 -28.662,-0C-19.761,0 0,0 0,0C4.367,0 7.939,-3.572 7.939,-7.939L7.939,-82.797C7.939,-87.163 4.367,-90.736 0,-90.736" style="fill:rgb(245,255,235);fill-rule:nonzero;"/>
        </g>
        <g transform="matrix(1.48314,0,0,1.48314,208.114,94.7959)">
            <path d="M0,45.368L-29.489,45.368C-33.856,45.368 -37.429,41.795 -37.429,37.429L-37.429,7.939C-37.429,3.573 -33.856,0 -29.489,0L0,0C4.367,0 7.939,3.573 7.939,7.939L7.939,37.429C7.939,41.795 4.367,45.368 0,45.368" style="fill:rgb(255,177,91);fill-rule:nonzero;"/>
        </g>
    </g>
</svg>
